# xmcd
#
# Track frame offsets:
#	150
#	20574
#	40751
#	58043
#	82701
#	103875
#	130955
#	149948
#	169400
#	188146
#	202595
#
# Disc length: 2931 seconds
#
# Revision: 2
# Processed by: cddbd v1.5.2PL0 Copyright (c) Steve Scherf et al.
# Submitted via: audiograbber 1.83.01
#
DISCID=990b710b
DTITLE=Bellowhead - Hedonism
DYEAR=2010
DGENRE=Folk
TTITLE0=New York Girls
TTITLE1=A-Begging I Will Go
TTITLE2=Cross-eyed And Chinless
TTITLE3=Bloomfield Hill
TTITLE4=The Hand Weaver And The Factory Maid
TTITLE5=Captain Wedderburn
TTITLE6=Amsterdam
TTITLE7=Cold Blows The Wind
TTITLE8=Parson's Farewell
TTITLE9=Little Sally Racket
TTITLE10=Yarmouth Town
EXTD=YEAR: 2010
EXTT0=
EXTT1=
EXTT2=
EXTT3=
EXTT4=
EXTT5=
EXTT6=
EXTT7=
EXTT8=
EXTT9=
EXTT10=
PLAYORDER=
